<?xml version="1.0" standalone="no"?>
<!DOCTYPE svg PUBLIC "-//W3C//DTD SVG 20010904//EN"
 "http://www.w3.org/TR/2001/REC-SVG-20010904/DTD/svg10.dtd">
<svg version="1.0" xmlns="http://www.w3.org/2000/svg"
 width="1672.000000pt" height="895.000000pt" viewBox="0 0 1672.000000 895.000000"
 preserveAspectRatio="xMidYMid meet">
<metadata>
Created by potrace 1.13, written by Peter Selinger 2001-2015
</metadata>
<g transform="translate(0.000000,895.000000) scale(0.100000,-0.100000)"
fill="#000000" stroke="none">
<path d="M6082 7213 l3 -588 5 580 5 580 1098 0 c605 0 1101 3 1104 7 2 5
-496 8 -1106 8 l-1111 0 2 -587z"/>
<path d="M6120 6790 l0 -160 265 0 265 0 0 160 0 160 -265 0 -265 0 0 -160z"/>
<path d="M5990 6564 l0 -56 45 6 c34 6 45 4 45 -6 0 -9 3 -9 10 2 5 8 10 11
10 5 0 -7 375 -10 1105 -10 628 0 1105 4 1105 9 0 5 23 6 50 2 l50 -7 0 56 0
55 -1210 0 -1210 0 0 -56z"/>
<path d="M5990 6317 l0 -173 1210 -2 1210 -2 0 175 0 175 -1210 0 -1210 0 0
-173z"/>
<path d="M5990 4625 l0 -1035 45 0 c38 0 45 3 45 20 0 11 7 20 15 20 8 0 15
-9 15 -20 0 -19 7 -20 165 -20 158 0 165 1 165 20 0 11 7 20 15 20 8 0 15 -9
15 -20 0 -19 7 -20 165 -20 158 0 165 1 165 20 0 13 7 20 20 20 13 0 20 -7 20
-20 0 -19 7 -20 160 -20 153 0 160 1 160 20 0 13 7 20 20 20 13 0 20 -7 20
-20 0 -19 7 -20 160 -20 153 0 160 1 160 20 0 11 7 20 15 20 8 0 15 -9 15 -20
0 -19 7 -20 165 -20 158 0 165 1 165 20 0 11 7 20 15 20 8 0 15 -9 15 -20 0
-19 7 -20 150 -20 83 0 150 -2 150 -5 0 -3 -7 -17 -16 -30 l-16 -25 811 0 811
0 0 1030 0 1030 -45 0 c-38 0 -45 -3 -45 -20 0 -11 -4 -20 -10 -20 -5 0 -10 9
-10 20 0 19 -7 20 -170 20 -163 0 -170 -1 -170 -20 0 -11 -7 -20 -15 -20 -8 0
-15 9 -15 20 0 19 -7 20 -165 20 -158 0 -165 -1 -165 -20 0 -11 -7 -20 -15
-20 -8 0 -15 9 -15 20 0 19 -7 20 -165 20 -158 0 -165 -1 -165 -20 0 -11 -7
-20 -15 -20 -8 0 -15 9 -15 20 0 19 -7 20 -165 20 -158 0 -165 -1 -165 -20 0
-11 -7 -20 -15 -20 -8 0 -15 9 -15 20 0 19 -7 20 -171 20 -166 0 -171 -1 -166
-20 3 -13 0 -20 -9 -20 -8 0 -14 9 -14 20 0 19 -7 20 -170 20 -163 0 -170 -1
-170 -20 0 -11 -4 -20 -10 -20 -5 0 -10 9 -10 20 0 19 -7 20 -160 20 -159 0
-160 0 -161 -22 -1 -22 -1 -22 -9 2 -8 24 -8 24 -9 3 -1 -28 -21 -31 -21 -3 0
19 -7 20 -160 20 -159 0 -160 0 -161 -22 -1 -22 -1 -22 -9 2 -8 24 -8 24 -9 3
-1 -28 -21 -31 -21 -3 0 19 -7 20 -170 20 -163 0 -170 -1 -170 -20 0 -11 -4
-20 -10 -20 -5 0 -10 9 -10 20 0 19 -7 20 -170 20 -163 0 -170 -1 -170 -20 0
-11 -4 -20 -10 -20 -5 0 -10 9 -10 20 0 17 -7 20 -40 20 -38 0 -40 2 -40 30
l0 30 1208 3 1207 2 -1212 3 -1213 2 0 -1035z m153 538 c4 -207 7 -634 7 -950
l0 -573 -70 0 -70 0 0 950 0 950 63 0 64 0 6 -377z m361 316 c3 -34 6 -462 6
-950 l0 -889 -70 0 -70 0 0 950 0 950 64 0 63 0 7 -61z m366 -889 l0 -950 -70
0 -70 0 0 950 0 950 70 0 70 0 0 -950z m360 0 l0 -950 -70 0 -70 0 0 950 0
950 70 0 70 0 0 -950z m360 0 l0 -950 -70 0 -70 0 0 950 0 950 70 0 70 0 0
-950z m37 -477 c-1 -263 -2 -48 -2 477 0 525 1 740 2 478 2 -263 2 -693 0
-955z m323 477 l0 -950 -70 0 -70 0 0 950 0 950 70 0 70 0 0 -950z m360 0 l0
-950 -70 0 -70 0 0 950 0 950 70 0 70 0 0 -950z m360 0 l0 -950 -70 0 -70 0 0
950 0 950 70 0 70 0 0 -950z m360 0 l0 -950 -70 0 -70 0 0 950 0 950 70 0 70
0 0 -950z m360 0 l0 -950 -65 0 -65 0 0 950 0 950 65 0 65 0 0 -950z m360 0
l0 -950 -65 0 -65 0 0 950 0 950 65 0 65 0 0 -950z"/>
<path d="M7369 3405 c-1 -144 -1 -185 0 -282 l1 -78 50 3 c27 2 50 0 50 -5 0
-6 2171 -10 2303 -4 l27 1 0 240 0 240 -1215 0 -1215 0 -1 -115z"/>
<path d="M7367 2679 c13 -13 128 -26 120 -13 -3 6 18 8 56 4 49 -5 2099 -6
2225 -1 17 0 32 6 32 11 0 7 -414 10 -1222 10 -859 0 -1219 -3 -1211 -11z"/>
<path d="M7372 1898 l3 -663 2 658 3 657 45 0 45 0 2 -657 3 -658 1060 -3
c583 -2 1106 0 1163 3 l102 7 0 659 0 659 -1215 0 -1215 0 2 -662z m378 121
c0 -360 -4 -544 -11 -575 -6 -25 -9 -47 -7 -50 4 -3 1704 -7 1925 -4 12 0 23
7 25 18 3 12 6 9 10 -10 l5 -28 -988 0 -988 0 -19 -62 -20 -63 -99 -3 -100 -3
3 628 c1 345 3 640 3 656 l1 27 130 0 130 0 0 -531z m1910 336 l0 -135 -265 0
-265 0 0 135 0 135 265 0 265 0 0 -135z"/>
<path d="M720 555 c0 -24 -2 -25 -69 -25 -62 0 -70 2 -76 21 -9 27 -22 14 -40
-37 -8 -22 -14 -31 -15 -22 0 10 -8 31 -18 48 -19 30 -19 30 -29 8 -13 -28 2
-65 28 -73 16 -5 19 -17 19 -76 l0 -69 -30 0 -30 0 31 -50 c17 -27 32 -50 34
-50 4 0 55 87 55 94 0 3 -11 6 -25 6 -24 0 -25 2 -25 69 0 60 3 70 19 76 11 3
23 15 26 26 6 16 16 19 76 19 67 0 69 -1 69 -25 0 -14 3 -25 6 -25 7 0 94 51
94 55 0 4 -87 55 -94 55 -3 0 -6 -11 -6 -25z"/>
</g>
</svg>
