<?xml version="1.0" encoding="utf-8"?>
<!-- Generator: Adobe Illustrator 15.1.0, SVG Export Plug-In  -->
<!DOCTYPE svg PUBLIC "-//W3C//DTD SVG 1.1//EN" "http://www.w3.org/Graphics/SVG/1.1/DTD/svg11.dtd" [
	<!ENTITY ns_flows "http://ns.adobe.com/Flows/1.0/">
]>
<svg version="1.1"
	 xmlns="http://www.w3.org/2000/svg" xmlns:xlink="http://www.w3.org/1999/xlink" xmlns:a="http://ns.adobe.com/AdobeSVGViewerExtensions/3.0/"
	 x="0px" y="0px" width="1122px" height="1007px" viewBox="-7.301 -5.503 1122 1007"
	 enable-background="new -7.301 -5.503 1122 1007" xml:space="preserve">
<defs>
</defs>
<path fill="#F1F2F2" d="M606.732,534.523c-0.987-4.663-1.702-9.598-2.109-14.468c-30.494,9.562-60.201,23.007-88.649,40.291
	c-35.193,21.611-65.952,47.79-91.747,77.251c21.44-20.617,45.435-39.402,71.873-55.64
	C531.393,560.347,568.75,544.664,606.732,534.523L606.732,534.523z M944.012,567.808c-26.511-17.53-54.923-31.755-84.458-42.337
	c-0.96,6.637-2.317,13.101-4.12,19.365c27.081,9.625,53.158,22.011,77.895,36.988C936.352,576.79,939.928,572.089,944.012,567.808
	L944.012,567.808z M1064.216,692.32c-3.405-5.613-7.018-11.026-10.558-16.469c-2.58,2.419-5.171,4.663-7.896,6.771
	c9.435,11.98,18.107,24.611,26.239,37.875c16.298,26.548,29.064,54.181,38.798,82.455
	C1101.166,764.909,1085.684,727.651,1064.216,692.32L1064.216,692.32z M933.155,760.219c18.317-19.367,34.479-40.771,48.296-63.949
	c-2.727-0.716-5.242-1.395-7.725-2.281C962.392,717.646,948.946,739.829,933.155,760.219L933.155,760.219z M673.299,174.131
	c0.064-4.936,0.815-9.833,1.84-14.524c-53.295-0.071-104.514,11.771-150.862,33.547
	C570.833,176.893,621.302,169.911,673.299,174.131L673.299,174.131z M825.312,193.153c-1.729,8.177-4.728,16.07-8.947,23.043
	c118.864,63.804,195.2,190.473,192.204,328.939c7.043,0.751,14.024,2.726,20.253,5.35
	C1044.061,397.922,959.604,255.672,825.312,193.153L825.312,193.153z M728.901,103.489C709.371,67.309,685.378,32.804,657.573,0
	c24.437,34.271,44.618,70.232,60.236,107.573C721.387,105.934,725.089,104.504,728.901,103.489L728.901,103.489z M462.001,843.454
	c96.474-59.042,175.87-131.087,232.395-212.049c-20.453-6.466-38.762-17.729-53.466-32.767
	c-54.994,70.405-128.125,133.504-215.308,186.588C445.667,797.586,459.72,818.781,462.001,843.454L462.001,843.454z
	 M787.708,393.123c2.11-17.862,3.098-35.871,3.098-54.08c0-31.029-3.134-61.658-9.083-91.537
	c-8.646,3.912-18.343,6.192-28.175,6.673c0.814,11.091,1.248,22.318,1.248,33.582c0,31.69-3.259,62.891-9.587,93.385
	C760.347,382.604,774.607,386.759,787.708,393.123L787.708,393.123z M308.388,850.807c0-1.432,0.163-2.789,0.308-4.184
	C215.618,888.408,111.586,920.334,0,939.801v61.043c121.318-16.161,234.668-47.741,335.369-91.637
	C318.899,894.946,308.388,874.084,308.388,850.807L308.388,850.807z M213.535,299.738c-15.482,49.891-23.785,102.947-23.748,158.006
	c0.208,134.021,49.888,256.288,132.001,349.711c4.907-7.354,11.2-13.653,18.243-18.824
	C253.319,690.42,200.57,561.505,200.407,420.143C200.407,378.766,205.033,338.536,213.535,299.738L213.535,299.738z
	 M453.391,886.743c-3.983,7.452-9.263,14.26-15.311,19.874c81.877,51.627,178.965,81.643,283.135,81.543
	c54.959,0,108.116-8.448,158.076-24.13c-38.869,8.573-79.124,13.2-120.475,13.371C646.074,977.439,541.226,944.021,453.391,886.743
	L453.391,886.743z"/>
<path fill="#F1F2F2" d="M1024.594,580.428c-5.27-3.33-11.291-5.549-17.864-6.563c-2.345-0.407-5.033-0.715-7.587-0.715
	c-11.942,0-22.934,4.355-31.444,11.599c-4.185,3.712-7.761,7.896-10.449,12.767c-4.012,7.106-6.429,15.249-6.429,23.921
	c0,21.748,14.323,40.092,34.025,46.15c3.377,1.123,7.08,1.764,10.657,2.109c1.358,0,2.453,0.063,3.675,0.063
	c10.648,0,20.419-3.404,28.313-9.082c3.232-2.38,6.192-5.142,8.747-8.239c7.043-8.304,11.299-19.195,11.299-31.037
	C1047.537,604.116,1038.446,588.903,1024.594,580.428L1024.594,580.428z M385.33,802.349c-26.683,0-48.295,21.675-48.295,48.358
	c0.072,26.71,21.712,48.321,48.458,48.287c26.655,0,48.159-21.677,48.159-48.322C433.652,824.023,411.939,802.349,385.33,802.349
	L385.33,802.349z M779.207,443.357c-13.038-9.361-29.1-15.012-46.422-15.111c0,0-0.371-0.037-0.579,0
	c-44.274,0-80.139,35.864-80.311,80.104c0,0.207-0.11,0.307-0.11,0.551c0,5.37,0.518,10.783,1.604,15.926
	c2.626,12.721,8.265,24.465,15.989,34.162c12.693,15.891,31.383,26.82,52.315,29.571c3.64,0.579,7.106,0.789,10.72,0.789
	c36.652-0.036,67.51-24.475,77.351-58.056c1.665-6.167,2.653-12.731,2.997-19.541c0-0.95,0.1-1.938,0.1-2.997
	C812.861,481.737,799.551,457.951,779.207,443.357L779.207,443.357z M749.971,225.658c0.172,0,0.443,0,0.443,0
	c9.082-0.137,17.556-2.554,24.7-7.009c6.193-3.748,11.508-8.882,15.384-15.048c4.191-6.392,6.871-13.78,7.659-21.984
	c0.099-1.357,0.235-2.787,0.235-4.281c0-26.684-21.812-48.259-48.422-48.259c-2.554,0-5.105,0.343-7.561,0.679
	c-5.134,0.652-9.797,2.317-14.252,4.626c-10.828,5.515-19.267,14.912-23.486,26.483c-1.901,5.207-2.96,10.784-2.96,16.498
	c0,0,0.072,0.207,0,0.207C701.784,204.289,723.397,225.757,749.971,225.658L749.971,225.658z"/>
</svg>
